<?xml version="1.0" standalone="no"?>
<!DOCTYPE svg PUBLIC "-//W3C//DTD SVG 20010904//EN"
 "http://www.w3.org/TR/2001/REC-SVG-20010904/DTD/svg10.dtd">
<svg version="1.0" xmlns="http://www.w3.org/2000/svg"
 width="700.000000pt" height="700.000000pt" viewBox="0 0 700.000000 700.000000"
 preserveAspectRatio="xMidYMid meet">
<metadata>
Created by potrace 1.14, written by Peter Selinger 2001-2017
</metadata>
<g transform="translate(0.000000,700.000000) scale(0.100000,-0.100000)"
fill="#000000" stroke="none">
<path d="M1610 6113 c-350 -59 -622 -314 -712 -669 l-23 -89 0 -1855 0 -1855
23 -89 c81 -320 311 -562 614 -646 142 -39 237 -41 2078 -38 l1775 4 82 22
c271 72 469 231 588 470 46 93 73 195 85 318 13 133 13 3495 0 3628 -17 176
-68 316 -164 451 -90 125 -247 246 -390 300 -154 58 -45 55 -2069 54 -1024 -1
-1873 -4 -1887 -6z m3766 -600 c63 -34 97 -66 129 -125 l30 -53 3 -852 c1
-469 0 -853 -3 -853 -2 0 -28 18 -57 40 -70 53 -196 114 -288 140 -94 26 -262
36 -357 21 -107 -17 -218 -55 -313 -108 -70 -39 -116 -79 -261 -220 l-175
-172 -285 285 c-156 157 -313 307 -349 334 -175 133 -358 188 -583 177 -165
-8 -305 -55 -444 -148 -26 -17 -254 -237 -505 -488 l-458 -456 0 1130 c0 709
4 1143 10 1165 15 56 65 126 109 156 86 57 -35 53 1936 51 l1820 -2 41 -22z
m-2365 -1980 c52 -16 87 -50 774 -733 798 -795 752 -756 885 -754 164 1 284
124 284 289 0 115 -16 139 -252 377 l-207 209 145 143 c173 170 208 191 320
190 114 0 141 -19 378 -256 l203 -204 -3 -564 -3 -565 -30 -53 c-32 -59 -66
-91 -129 -125 l-41 -22 -1835 0 -1835 0 -41 22 c-63 34 -97 66 -129 125 l-30
53 -3 274 -3 275 633 633 c348 349 648 643 667 655 80 50 160 60 252 31z"/>
<path d="M3995 4943 c-97 -35 -162 -102 -190 -196 -19 -64 -19 -100 0 -164 23
-77 74 -136 149 -173 60 -30 71 -32 143 -28 91 4 140 25 196 81 108 108 111
282 8 400 -71 80 -207 115 -306 80z"/>
</g>
</svg>
